<svg width="512" height="512" viewBox="0 0 512 512" fill="none" xmlns="http://www.w3.org/2000/svg">
<path d="M205.607 360.97C205.607 360.97 190.934 369.503 216.05 372.39C246.479 375.861 262.03 375.364 295.563 369.017C295.563 369.017 304.38 374.545 316.691 379.334C241.521 411.551 146.564 377.467 205.607 360.97ZM196.421 318.927C196.421 318.927 179.963 331.111 205.099 333.71C237.604 337.063 263.273 337.338 307.692 328.785C307.692 328.785 313.836 335.013 323.496 338.42C232.609 364.997 131.379 340.516 196.421 318.927Z" fill="url(#paint0_linear_29_11)"/>
<path d="M273.858 247.611C292.381 268.935 268.992 288.125 268.992 288.125C268.992 288.125 316.022 263.847 294.423 233.443C274.251 205.092 258.78 191.003 342.529 142.432C342.529 142.432 211.072 175.265 273.858 247.611Z" fill="url(#paint1_linear_29_11)"/>
<path d="M373.278 392.066C373.278 392.066 384.137 401.012 361.318 407.935C317.929 421.08 180.726 425.049 142.611 408.458C128.91 402.499 154.604 394.227 162.686 392.49C171.115 390.663 175.932 391.004 175.932 391.004C160.695 380.269 77.4451 412.081 133.646 421.19C286.911 446.045 413.033 409.998 373.278 392.066ZM212.663 275.367C212.663 275.367 142.874 291.944 187.949 297.963C206.981 300.511 244.922 299.935 280.262 296.973C309.145 294.538 338.146 289.357 338.146 289.357C338.146 289.357 327.962 293.719 320.594 298.75C249.723 317.389 112.814 308.718 152.228 289.652C185.561 273.539 212.663 275.367 212.663 275.367ZM337.858 345.347C409.903 307.91 376.592 271.934 353.342 276.782C347.643 277.967 345.103 278.994 345.103 278.994C345.103 278.994 347.218 275.681 351.259 274.247C397.254 258.075 432.628 321.94 336.411 347.234C336.411 347.235 337.526 346.239 337.858 345.347Z" fill="url(#paint2_linear_29_11)"/>
<path d="M294.423 64.0011C294.423 64.0011 334.323 103.915 256.581 165.289C194.241 214.522 242.365 242.593 256.555 274.666C220.166 241.834 193.461 212.931 211.377 186.032C237.673 146.543 310.521 127.4 294.423 64.0011Z" fill="url(#paint3_linear_29_11)"/>
<path d="M219.743 446.793C288.896 451.22 395.087 444.337 397.602 411.615C397.602 411.615 392.768 424.021 340.451 433.871C281.428 444.978 208.631 443.682 165.454 436.563C165.455 436.563 174.292 443.879 219.743 446.793Z" fill="url(#paint4_linear_29_11)"/>
<defs>
<linearGradient id="paint0_linear_29_11" x1="249.625" y1="318.927" x2="249.625" y2="392.693" gradientUnits="userSpaceOnUse">
<stop stop-color="#5382A1"/>
<stop offset="1" stop-color="#6BABD6"/>
</linearGradient>
<linearGradient id="paint1_linear_29_11" x1="299.699" y1="142.432" x2="299.699" y2="288.125" gradientUnits="userSpaceOnUse">
<stop stop-color="#E76F00"/>
<stop offset="1" stop-color="#FECEA3"/>
</linearGradient>
<linearGradient id="paint2_linear_29_11" x1="255.917" y1="271.657" x2="255.917" y2="429.655" gradientUnits="userSpaceOnUse">
<stop stop-color="#5382A1"/>
<stop offset="1" stop-color="#6BABD6"/>
</linearGradient>
<linearGradient id="paint3_linear_29_11" x1="255.16" y1="64" x2="255.16" y2="274.666" gradientUnits="userSpaceOnUse">
<stop stop-color="#E76F00"/>
<stop offset="1" stop-color="#FECEA3"/>
</linearGradient>
<linearGradient id="paint4_linear_29_11" x1="281.528" y1="411.615" x2="281.528" y2="448" gradientUnits="userSpaceOnUse">
<stop stop-color="#5382A1"/>
<stop offset="1" stop-color="#6BABD6"/>
</linearGradient>
</defs>
</svg>
