<svg width="512" height="512" viewBox="0 0 512 512" fill="none" xmlns="http://www.w3.org/2000/svg">
<g clip-path="url(#clip0_29_3)">
<rect x="64" y="64" width="384" height="384" rx="64" fill="white"/>
<path fill-rule="evenodd" clip-rule="evenodd" d="M358.298 417.894C324.794 417.894 303.136 401.92 292.576 381.03L321.952 364.019C329.69 376.653 339.731 385.926 357.53 385.926C372.467 385.926 382.01 378.458 382.01 368.147C382.01 352.634 361.312 346.566 346.701 340.307C320.666 329.229 303.386 315.309 303.386 285.914C303.386 258.861 324.006 238.24 356.243 238.24C379.168 238.24 395.68 246.227 407.526 267.098L379.437 285.146C373.254 274.067 366.554 269.69 356.243 269.69C345.664 269.69 338.963 276.39 338.963 285.146C338.963 295.974 345.664 300.352 361.139 307.053C393.568 320.954 418.106 331.878 418.106 367.629C418.106 400.115 392.589 417.894 358.298 417.894ZM275.2 363.501C275.2 400.883 252.179 420.64 220.211 420.64C191.334 420.64 174.035 409.6 165.53 390.4H165.03L194.387 369.875C200.051 379.917 205.158 387.04 217.523 387.04C229.389 387.04 236.8 381.03 236.8 363.002V236.8H275.2V363.501ZM64 448H448V64H64V448Z" fill="url(#paint0_linear_29_3)"/>
</g>
<defs>
<linearGradient id="paint0_linear_29_3" x1="105.349" y1="106.968" x2="400.167" y2="422.259" gradientUnits="userSpaceOnUse">
<stop stop-color="#F8DC3D"/>
<stop offset="1" stop-color="#EAC702"/>
</linearGradient>
<clipPath id="clip0_29_3">
<rect x="64" y="64" width="384" height="384" rx="64" fill="white"/>
</clipPath>
</defs>
</svg>
