<svg width="512" height="512" viewBox="0 0 512 512" fill="none" xmlns="http://www.w3.org/2000/svg">
<path d="M395.179 347.95C421.835 347.95 431.691 329.359 440.955 301.488C450.555 272.784 450.139 245.169 440.955 208.402C434.347 181.922 421.851 161.939 395.179 161.939H360.827V202.594C360.827 234.129 334.075 260.705 303.579 260.705H212.027C186.987 260.705 166.251 282.128 166.251 307.247V394.509C166.251 419.357 187.851 433.932 212.027 441.052C240.987 449.532 268.859 451.068 303.563 441.052C326.619 434.364 349.339 420.893 349.339 394.509V359.614H257.867V347.966H395.179V347.95ZM309.307 382.846C318.811 382.846 326.539 390.653 326.539 400.253C326.539 409.949 318.827 417.741 309.307 417.741C299.867 417.741 292.075 409.853 292.075 400.253C292.171 390.557 299.899 382.846 309.307 382.846Z" fill="url(#paint0_linear_29_7)"/>
<path d="M119.099 347.966H150.555V306.127C150.555 275.872 176.699 249.201 207.803 249.201H299.339C324.795 249.201 345.115 228.209 345.115 202.658V115.332C345.115 90.4847 324.203 71.8612 299.339 67.6853C268.651 62.6134 235.307 62.9014 207.803 67.7813L207.819 67.7653C169.067 74.6131 162.059 88.9168 162.059 115.396V150.291H253.691V161.955H127.675C101.019 161.955 77.6906 177.987 70.4266 208.418C62.0266 243.313 61.6906 265.072 70.4266 301.504C76.9226 328.591 92.4587 347.966 119.099 347.966ZM202.075 126.98C192.571 126.98 184.843 119.172 184.843 109.572C184.955 99.8765 192.571 92.0847 202.075 92.0847C211.515 92.0847 219.307 99.9565 219.307 109.572C219.307 119.188 211.595 126.98 202.075 126.98Z" fill="url(#paint1_linear_29_7)"/>
<defs>
<linearGradient id="paint0_linear_29_7" x1="307.125" y1="161.939" x2="307.125" y2="448" gradientUnits="userSpaceOnUse">
<stop stop-color="#FFD342"/>
<stop offset="1" stop-color="#E9B402"/>
</linearGradient>
<linearGradient id="paint1_linear_29_7" x1="204.557" y1="64" x2="204.557" y2="347.966" gradientUnits="userSpaceOnUse">
<stop stop-color="#3673A5"/>
<stop offset="1" stop-color="#4C9CDE"/>
</linearGradient>
</defs>
</svg>
