<svg width="512" height="512" viewBox="0 0 512 512" fill="none" xmlns="http://www.w3.org/2000/svg">
<g clip-path="url(#clip0_30_10)">
<rect x="64" y="64" width="384" height="384" rx="64" fill="white"/>
<path d="M64 256V448H448V64H64V256ZM297.008 378.016C298.736 377.04 305.184 373.312 311.28 369.776L322.32 363.376L324.64 366.8C327.872 371.728 334.928 378.496 339.2 380.752C351.456 387.216 368.272 386.304 376.56 378.864C379.648 376.256 381.584 372.384 381.584 368.064C381.584 367.808 381.584 367.568 381.568 367.312V367.344C381.568 362.896 381.008 360.944 378.688 357.584C375.712 353.328 369.616 349.744 352.304 342.224C332.496 333.696 323.968 328.4 316.16 319.984C311.456 314.64 307.824 308.208 305.712 301.136L305.616 300.784C304.16 295.36 303.792 281.76 304.944 276.288C309.024 257.136 323.472 243.808 344.32 239.84C351.088 238.56 366.816 239.04 373.456 240.688C383.216 243.12 390.64 247.472 397.472 254.544C401.008 258.32 406.256 265.2 406.672 266.864C406.8 267.344 390.096 278.544 379.984 284.832C379.616 285.072 378.144 283.488 376.512 281.056C371.552 273.856 366.384 270.752 358.464 270.208C346.816 269.408 339.328 275.504 339.392 285.68C339.392 285.856 339.376 286.064 339.376 286.272C339.376 288.688 339.984 290.96 341.056 292.944L341.024 292.864C343.584 298.16 348.352 301.344 363.264 307.792C390.768 319.632 402.528 327.424 409.84 338.512C418 350.88 419.84 370.64 414.288 385.328C408.208 401.296 393.088 412.144 371.808 415.728C365.232 416.896 349.632 416.72 342.56 415.44C327.136 412.688 312.512 405.072 303.488 395.072C299.952 391.184 293.056 380.992 293.488 380.272C293.664 380.016 295.248 379.04 297.008 378.016ZM148.128 257.04C148.128 248.496 148.304 241.36 148.544 241.2C148.736 240.944 179.152 240.816 216.016 240.88L283.136 241.072L283.312 256.736L283.44 272.464H233.44V414.48H198.08V272.464H148.128V257.04Z" fill="url(#paint0_linear_30_10)"/>
</g>
<defs>
<linearGradient id="paint0_linear_30_10" x1="111.553" y1="106.968" x2="394.087" y2="414.07" gradientUnits="userSpaceOnUse">
<stop stop-color="#3178C6"/>
<stop offset="1" stop-color="#5EA9FD"/>
</linearGradient>
<clipPath id="clip0_30_10">
<rect x="64" y="64" width="384" height="384" rx="64" fill="white"/>
</clipPath>
</defs>
</svg>
